<svg width="43" height="43" viewBox="0 0 43 43" fill="none" xmlns="http://www.w3.org/2000/svg">
<path d="M0 6.29265C0 2.8157 2.81863 -0.00292969 6.29559 -0.00292969H36.1994C39.6763 -0.00292969 42.495 2.8157 42.495 6.29266V36.1965C42.495 39.6734 39.6763 42.492 36.1994 42.492H6.29558C2.81863 42.492 0 39.6734 0 36.1965V6.29265Z" fill="#4C545F"/>
<path d="M6.2959 0.390625H36.1992C39.4589 0.390625 42.1016 3.03332 42.1016 6.29297V36.1963C42.1016 39.4559 39.4589 42.0986 36.1992 42.0986H6.2959C3.03625 42.0986 0.393555 39.4559 0.393555 36.1963V6.29297C0.393555 3.03332 3.03625 0.390625 6.2959 0.390625Z" stroke="#3B82F6" stroke-opacity="0.2" stroke-width="0.786948"/>
<path d="M20.9448 5.83714C21.0042 5.83726 21.0637 5.83739 21.1249 5.83752C21.9789 5.84042 22.8135 5.85877 23.6527 6.03056C23.7109 6.04185 23.7691 6.05314 23.829 6.06477C26.6552 6.6232 29.2358 7.9322 31.3019 9.94275C31.3606 9.9991 31.3606 9.9991 31.4204 10.0566C31.9422 10.5596 32.4328 11.0681 32.8625 11.6525C32.9382 11.7546 33.0159 11.8549 33.0941 11.9552C33.5533 12.5516 33.9261 13.1915 34.2799 13.8549C34.3186 13.9274 34.3187 13.9274 34.3582 14.0013C35.0307 15.2802 35.4786 16.6986 35.7397 18.1175C35.7491 18.1642 35.7585 18.211 35.7682 18.2591C36.0888 19.8986 36.0745 21.8539 35.7397 23.4894C35.7284 23.5476 35.7171 23.6058 35.7055 23.6658C35.2314 26.065 34.2172 28.2309 32.7033 30.146C32.6559 30.2066 32.6085 30.2672 32.5596 30.3296C31.8201 31.2382 30.9705 32.0905 30.0173 32.7736C29.9388 32.8313 29.8602 32.8891 29.7817 32.9469C27.9537 34.2782 25.8774 35.1669 23.6527 35.5763C23.6059 35.5857 23.5592 35.5951 23.511 35.6048C21.8721 35.9254 19.9155 35.912 18.2807 35.5763C18.2215 35.5647 18.1624 35.5531 18.1015 35.5412C15.702 35.0614 13.5453 34.043 11.624 32.54C11.5926 32.5155 11.5611 32.4911 11.5286 32.4658C10.5804 31.7206 9.70035 30.8336 8.99642 29.854C8.94599 29.7857 8.8955 29.7174 8.84497 29.6492C7.96073 28.4448 7.25524 27.1247 6.77755 25.7083C6.75343 25.6369 6.75343 25.6369 6.72882 25.5641C6.53975 24.9935 6.39188 24.4165 6.26662 23.8288C6.25502 23.7748 6.24341 23.7208 6.23145 23.6652C6.03919 22.7189 5.99654 21.7885 6.00021 20.8253C6.00034 20.7659 6.00046 20.7064 6.00059 20.6452C6.0035 19.7913 6.02184 18.9567 6.19363 18.1175C6.21057 18.0302 6.21057 18.0302 6.22785 17.9411C6.6733 15.6868 7.59079 13.5757 8.99642 11.7529C9.05276 11.6797 9.05276 11.6797 9.11024 11.6051C9.93372 10.5567 10.8887 9.55307 11.9744 8.77493C12.006 8.75205 12.0376 8.72916 12.0702 8.70559C13.8754 7.40443 15.8826 6.52262 18.0617 6.07435C18.1043 6.06552 18.147 6.05669 18.191 6.04759C19.1074 5.87065 20.0137 5.83359 20.9448 5.83714ZM11.8576 11.4609C11.8286 11.4884 11.7995 11.5158 11.7696 11.5441C11.3021 11.9877 10.8995 12.4629 10.5146 12.9791C10.4898 13.0117 10.4649 13.0444 10.4394 13.078C10.0157 13.6361 9.66917 14.226 9.34677 14.8476C9.32395 14.8913 9.30114 14.935 9.27763 14.9801C8.35139 16.7777 7.9188 18.7489 7.92348 20.7633C7.92353 20.8172 7.92358 20.8711 7.92363 20.9267C7.93435 24.3619 9.3157 27.5068 11.6824 29.9708C11.7324 30.0232 11.7824 30.0756 11.8339 30.1296C12.1706 30.4748 12.5257 30.7873 12.9086 31.0802C12.9463 31.1091 12.9839 31.1379 13.0227 31.1677C13.6552 31.648 14.304 32.0613 15.0107 32.4232C15.0541 32.4458 15.0975 32.4683 15.1422 32.4916C18.182 34.0584 21.7613 34.2647 25.0026 33.2377C26.9573 32.594 28.6572 31.5062 30.1341 30.0876C30.2127 30.0126 30.2127 30.0126 30.2929 29.9361C30.6385 29.5991 30.948 29.2428 31.2436 28.8614C31.2683 28.8297 31.2931 28.7981 31.3186 28.7654C33.0908 26.4843 34.0168 23.6901 34.0098 20.8107C34.0098 20.7584 34.0097 20.706 34.0097 20.652C33.9987 17.2269 32.6058 14.0926 30.2509 11.6361C30.1987 11.5808 30.1464 11.5254 30.0926 11.4684C29.6895 11.0517 29.2542 10.6978 28.7911 10.3515C28.7584 10.3266 28.7257 10.3017 28.6919 10.276C28.1339 9.8524 27.544 9.506 26.9226 9.18366C26.8789 9.16085 26.8351 9.13803 26.7901 9.11452C21.9203 6.60542 15.8707 7.6287 11.8576 11.4609Z" fill="white"/>
<path d="M21.3171 11.461C21.589 11.5872 21.7826 11.7671 21.901 12.0449C21.9372 12.2758 21.9416 12.5048 21.9448 12.7383C21.9465 12.8007 21.9483 12.8632 21.95 12.9276C21.9541 13.081 21.9572 13.2344 21.9594 13.3879C22.0054 13.4016 22.0513 13.4153 22.0987 13.4294C23.1427 13.7467 24.0949 14.3873 24.6433 15.3559C24.9895 16.0089 25.1822 16.6401 25.1965 17.3803C25.1978 17.4248 25.1991 17.4693 25.2004 17.5151C25.1991 17.8205 25.136 17.9908 24.9374 18.2343C24.7143 18.4462 24.5355 18.486 24.2367 18.4971C23.9379 18.486 23.759 18.4462 23.536 18.2343C23.3101 17.9499 23.2595 17.7217 23.2185 17.373C23.1262 16.7329 22.9168 16.2238 22.4265 15.7819C21.83 15.3496 21.2253 15.2433 20.4996 15.3148C19.9018 15.4378 19.4005 15.7933 19.0565 16.2955C18.7134 16.8836 18.6478 17.5228 18.7864 18.1848C18.9712 18.7552 19.3428 19.2135 19.8573 19.5189C20.3053 19.7227 20.7391 19.7964 21.2259 19.84C21.7284 19.8936 22.1967 19.9469 22.6601 20.1612C22.7212 20.1887 22.7823 20.2161 22.8453 20.2444C23.9529 20.7892 24.6164 21.7128 25.0601 22.8346C25.3913 23.8856 25.2197 25.1331 24.7293 26.0988C24.2018 27.0682 23.3022 27.8066 22.2505 28.1396C22.1538 28.1673 22.0566 28.1934 21.9594 28.2191C21.9588 28.258 21.9583 28.2968 21.9577 28.3369C21.9546 28.5142 21.9497 28.6914 21.9448 28.8687C21.944 28.9299 21.9431 28.991 21.9423 29.0539C21.9277 29.5157 21.8598 29.7297 21.5215 30.0511C21.2199 30.1912 20.9434 30.19 20.6164 30.146C20.3444 30.0198 20.1509 29.8399 20.0325 29.5621C19.9963 29.3312 19.9918 29.1022 19.9887 28.8687C19.9869 28.8063 19.9852 28.7438 19.9834 28.6794C19.9793 28.526 19.9762 28.3726 19.9741 28.2191C19.8947 28.1926 19.8947 28.1926 19.8137 28.1655C18.6218 27.7556 17.7416 27.0854 17.1455 25.9579C16.873 25.3933 16.748 24.8512 16.737 24.2267C16.7357 24.1822 16.7344 24.1378 16.7331 24.092C16.7343 23.7865 16.7975 23.6162 16.9961 23.3727C17.2191 23.1608 17.398 23.121 17.6968 23.1099C17.9956 23.121 18.1745 23.1608 18.3975 23.3727C18.6234 23.6571 18.6739 23.8853 18.715 24.234C18.8073 24.8741 19.0167 25.3832 19.507 25.8251C20.1035 26.2573 20.7081 26.3637 21.4339 26.2922C22.0316 26.1691 22.5329 25.8136 22.877 25.3115C23.2201 24.7234 23.2857 24.0842 23.1471 23.4222C22.9623 22.8518 22.5906 22.3935 22.0762 22.0881C21.6281 21.8842 21.1944 21.8106 20.7076 21.7669C20.2051 21.7134 19.7367 21.6601 19.2734 21.4458C19.2123 21.4183 19.1511 21.3908 19.0882 21.3625C17.9805 20.8178 17.3171 19.8942 16.8734 18.7724C16.5422 17.7214 16.7138 16.4739 17.2041 15.5082C17.7316 14.5388 18.6313 13.8004 19.683 13.4674C19.7796 13.4397 19.8768 13.4136 19.9741 13.3879C19.9746 13.349 19.9752 13.3102 19.9757 13.2701C19.9789 13.0928 19.9838 12.9156 19.9887 12.7383C19.9895 12.6771 19.9903 12.616 19.9912 12.5531C20.0058 12.0913 20.0737 11.8773 20.412 11.5558C20.7136 11.4158 20.9901 11.4169 21.3171 11.461Z" fill="white"/>
</svg>
