<svg width="43" height="42" viewBox="0 0 43 42" fill="none" xmlns="http://www.w3.org/2000/svg">
<path d="M0.987305 8C0.987305 3.58172 4.56903 0 8.9873 0H34.9873C39.4056 0 42.9873 3.58172 42.9873 8V34C42.9873 38.4183 39.4056 42 34.9873 42H8.9873C4.56903 42 0.987305 38.4183 0.987305 34V8Z" fill="#3B82F6" fill-opacity="0.1"/>
<path d="M8.9873 0.394531H34.9873C39.1874 0.394531 42.5928 3.79987 42.5928 8V34C42.5928 38.2001 39.1874 41.6055 34.9873 41.6055H8.9873C4.78718 41.6055 1.38184 38.2001 1.38184 34V8C1.38184 3.79987 4.78718 0.394531 8.9873 0.394531Z" stroke="#3B82F6" stroke-opacity="0.2" stroke-width="0.79"/>
<path d="M21.9873 31C27.5102 31 31.9873 26.5228 31.9873 21C31.9873 15.4772 27.5102 11 21.9873 11C16.4645 11 11.9873 15.4772 11.9873 21C11.9873 26.5228 16.4645 31 21.9873 31Z" stroke="#36454F" stroke-width="2" stroke-linecap="round" stroke-linejoin="round"/>
<path d="M21.9873 15V21L25.9873 23" stroke="#36454F" stroke-width="2" stroke-linecap="round" stroke-linejoin="round"/>
</svg>
